<?xml version="1.0" encoding="UTF-8"?>
<mxfile host="app.diagrams.net" modified="2024-01-01T00:00:00.000Z" agent="5.0" etag="componentdiagram" version="22.1.16">
  <diagram name="Component Diagram - Entire System" id="component-system">
    <mxGraphModel dx="1422" dy="794" grid="1" gridSize="10" guides="1" tooltips="1" connect="1" arrows="1" fold="1" page="1" pageScale="1" pageWidth="1169" pageHeight="1654" math="0" shadow="0">
      <root>
        <mxCell id="0" />
        <mxCell id="1" parent="0" />
        
        <!-- Title -->
        <mxCell id="title" value="Avans Maaltijdreservering - System Component Diagram" style="text;html=1;align=center;verticalAlign=middle;whiteSpace=wrap;rounded=0;fontStyle=1;fontSize=16;" vertex="1" parent="1">
          <mxGeometry x="350" y="30" width="470" height="30" as="geometry" />
        </mxCell>

        <!-- External Actors -->
        <mxCell id="student-actor" value="Student" style="shape=umlActor;verticalLabelPosition=bottom;verticalAlign=top;html=1;outlineConnect=0;" vertex="1" parent="1">
          <mxGeometry x="80" y="100" width="30" height="60" as="geometry" />
        </mxCell>

        <mxCell id="employee-actor" value="Canteen Employee" style="shape=umlActor;verticalLabelPosition=bottom;verticalAlign=top;html=1;outlineConnect=0;" vertex="1" parent="1">
          <mxGeometry x="80" y="200" width="30" height="60" as="geometry" />
        </mxCell>

        <mxCell id="mobile-actor" value="Mobile App&#xa;(AvansOne)" style="shape=umlActor;verticalLabelPosition=bottom;verticalAlign=top;html=1;outlineConnect=0;" vertex="1" parent="1">
          <mxGeometry x="80" y="300" width="30" height="60" as="geometry" />
        </mxCell>

        <!-- Web Application Component -->
        <mxCell id="webapp-component" value="&lt;&lt;component&gt;&gt;&#xa;Web Application&#xa;(ASP.NET MVC)" style="html=1;dropTarget=0;whiteSpace=wrap;" vertex="1" parent="1">
          <mxGeometry x="200" y="80" width="180" height="100" as="geometry" />
        </mxCell>
        <mxCell id="webapp-provided-interface1" value="&lt;&lt;interface&gt;&gt;&#xa;IWebUI" style="html=1;whiteSpace=wrap;" vertex="1" parent="1">
          <mxGeometry x="400" y="90" width="80" height="30" as="geometry" />
        </mxCell>
        <mxCell id="webapp-provided-interface2" value="&lt;&lt;interface&gt;&gt;&#xa;IEmployeeUI" style="html=1;whiteSpace=wrap;" vertex="1" parent="1">
          <mxGeometry x="400" y="140" width="80" height="30" as="geometry" />
        </mxCell>

        <!-- API Component -->
        <mxCell id="api-component" value="&lt;&lt;component&gt;&gt;&#xa;REST API&#xa;(ASP.NET Core)" style="html=1;dropTarget=0;whiteSpace=wrap;" vertex="1" parent="1">
          <mxGeometry x="200" y="280" width="180" height="100" as="geometry" />
        </mxCell>
        <mxCell id="api-provided-interface1" value="&lt;&lt;interface&gt;&gt;&#xa;IRestAPI" style="html=1;whiteSpace=wrap;" vertex="1" parent="1">
          <mxGeometry x="400" y="290" width="80" height="30" as="geometry" />
        </mxCell>
        <mxCell id="api-provided-interface2" value="&lt;&lt;interface&gt;&gt;&#xa;IGraphQLAPI" style="html=1;whiteSpace=wrap;" vertex="1" parent="1">
          <mxGeometry x="400" y="330" width="80" height="30" as="geometry" />
        </mxCell>

        <!-- Business Logic Component -->
        <mxCell id="business-component" value="&lt;&lt;component&gt;&gt;&#xa;Business Logic&#xa;(Domain Services)" style="html=1;dropTarget=0;whiteSpace=wrap;" vertex="1" parent="1">
          <mxGeometry x="550" y="180" width="180" height="100" as="geometry" />
        </mxCell>
        <mxCell id="business-provided-interface1" value="&lt;&lt;interface&gt;&gt;&#xa;IStudentService" style="html=1;whiteSpace=wrap;" vertex="1" parent="1">
          <mxGeometry x="750" y="160" width="100" height="30" as="geometry" />
        </mxCell>
        <mxCell id="business-provided-interface2" value="&lt;&lt;interface&gt;&gt;&#xa;IPackageService" style="html=1;whiteSpace=wrap;" vertex="1" parent="1">
          <mxGeometry x="750" y="200" width="100" height="30" as="geometry" />
        </mxCell>
        <mxCell id="business-provided-interface3" value="&lt;&lt;interface&gt;&gt;&#xa;IReservationService" style="html=1;whiteSpace=wrap;" vertex="1" parent="1">
          <mxGeometry x="750" y="240" width="100" height="30" as="geometry" />
        </mxCell>

        <!-- Core Domain Component -->
        <mxCell id="domain-component" value="&lt;&lt;component&gt;&gt;&#xa;Core Domain&#xa;(Entities &amp; Business Rules)" style="html=1;dropTarget=0;whiteSpace=wrap;" vertex="1" parent="1">
          <mxGeometry x="880" y="180" width="180" height="100" as="geometry" />
        </mxCell>
        <mxCell id="domain-provided-interface1" value="&lt;&lt;interface&gt;&gt;&#xa;IStudentRepository" style="html=1;whiteSpace=wrap;" vertex="1" parent="1">
          <mxGeometry x="880" y="120" width="110" height="30" as="geometry" />
        </mxCell>
        <mxCell id="domain-provided-interface2" value="&lt;&lt;interface&gt;&gt;&#xa;IPackageRepository" style="html=1;whiteSpace=wrap;" vertex="1" parent="1">
          <mxGeometry x="1000" y="120" width="110" height="30" as="geometry" />
        </mxCell>

        <!-- Data Access Component -->
        <mxCell id="dataaccess-component" value="&lt;&lt;component&gt;&gt;&#xa;Data Access&#xa;(Entity Framework)" style="html=1;dropTarget=0;whiteSpace=wrap;" vertex="1" parent="1">
          <mxGeometry x="550" y="380" width="180" height="100" as="geometry" />
        </mxCell>
        <mxCell id="dataaccess-required-interface1" value="&lt;&lt;interface&gt;&gt;&#xa;IApplicationDbContext" style="html=1;whiteSpace=wrap;" vertex="1" parent="1">
          <mxGeometry x="750" y="400" width="120" height="30" as="geometry" />
        </mxCell>

        <!-- Identity Component -->
        <mxCell id="identity-component" value="&lt;&lt;component&gt;&gt;&#xa;Identity Management&#xa;(Microsoft Identity)" style="html=1;dropTarget=0;whiteSpace=wrap;" vertex="1" parent="1">
          <mxGeometry x="200" y="480" width="180" height="100" as="geometry" />
        </mxCell>
        <mxCell id="identity-provided-interface" value="&lt;&lt;interface&gt;&gt;&#xa;IAuthenticationService" style="html=1;whiteSpace=wrap;" vertex="1" parent="1">
          <mxGeometry x="400" y="500" width="130" height="30" as="geometry" />
        </mxCell>

        <!-- Testing Components -->
        <mxCell id="unit-tests-component" value="&lt;&lt;component&gt;&gt;&#xa;Unit Tests&#xa;(xUnit)" style="html=1;dropTarget=0;whiteSpace=wrap;" vertex="1" parent="1">
          <mxGeometry x="200" y="620" width="120" height="80" as="geometry" />
        </mxCell>

        <mxCell id="integration-tests-component" value="&lt;&lt;component&gt;&gt;&#xa;Integration Tests&#xa;(xUnit)" style="html=1;dropTarget=0;whiteSpace=wrap;" vertex="1" parent="1">
          <mxGeometry x="350" y="620" width="120" height="80" as="geometry" />
        </mxCell>

        <!-- Database Components -->
        <mxCell id="main-database" value="&lt;&lt;component&gt;&gt;&#xa;Main Database&#xa;(SQL Server)" style="shape=cylinder3;whiteSpace=wrap;html=1;boundedLbl=1;backgroundOutline=1;size=15;" vertex="1" parent="1">
          <mxGeometry x="880" y="380" width="120" height="80" as="geometry" />
        </mxCell>

        <mxCell id="identity-database" value="&lt;&lt;component&gt;&gt;&#xa;Identity Database&#xa;(SQL Server)" style="shape=cylinder3;whiteSpace=wrap;html=1;boundedLbl=1;backgroundOutline=1;size=15;" vertex="1" parent="1">
          <mxGeometry x="200" y="620" width="120" height="80" as="geometry" />
        </mxCell>

        <!-- External Services -->
        <mxCell id="email-service" value="&lt;&lt;component&gt;&gt;&#xa;Email Service&#xa;(SMTP)" style="shape=hexagon;perimeter=hexagonPerimeter2;whiteSpace=wrap;html=1;fixedSize=1;" vertex="1" parent="1">
          <mxGeometry x="50" y="480" width="120" height="80" as="geometry" />
        </mxCell>

        <mxCell id="logging-service" value="&lt;&lt;component&gt;&gt;&#xa;Logging Service&#xa;(Serilog)" style="shape=hexagon;perimeter=hexagonPerimeter2;whiteSpace=wrap;html=1;fixedSize=1;" vertex="1" parent="1">
          <mxGeometry x="880" y="480" width="120" height="80" as="geometry" />
        </mxCell>

        <!-- Connections from actors to components -->
        <mxCell id="conn1" value="" style="endArrow=classic;html=1;rounded=0;" edge="1" parent="1" source="student-actor" target="webapp-component">
          <mxGeometry width="50" height="50" relative="1" as="geometry">
            <mxPoint x="120" y="130" as="sourcePoint" />
            <mxPoint x="170" y="80" as="targetPoint" />
          </mxGeometry>
        </mxCell>
        <mxCell id="conn1-label" value="uses web interface" style="edgeLabel;html=1;align=center;verticalAlign=middle;resizable=0;points=[];" vertex="1" connectable="0" parent="conn1">
          <mxGeometry x="-0.1" y="-1" relative="1" as="geometry">
            <mxPoint as="offset" />
          </mxGeometry>
        </mxCell>

        <mxCell id="conn2" value="" style="endArrow=classic;html=1;rounded=0;" edge="1" parent="1" source="employee-actor" target="webapp-component">
          <mxGeometry width="50" height="50" relative="1" as="geometry">
            <mxPoint x="120" y="220" as="sourcePoint" />
            <mxPoint x="200" y="180" as="targetPoint" />
          </mxGeometry>
        </mxCell>
        <mxCell id="conn2-label" value="manages packages" style="edgeLabel;html=1;align=center;verticalAlign=middle;resizable=0;points=[];" vertex="1" connectable="0" parent="conn2">
          <mxGeometry x="-0.1" y="-1" relative="1" as="geometry">
            <mxPoint as="offset" />
          </mxGeometry>
        </mxCell>

        <mxCell id="conn3" value="" style="endArrow=classic;html=1;rounded=0;" edge="1" parent="1" source="mobile-actor" target="api-component">
          <mxGeometry width="50" height="50" relative="1" as="geometry">
            <mxPoint x="120" y="330" as="sourcePoint" />
            <mxPoint x="200" y="330" as="targetPoint" />
          </mxGeometry>
        </mxCell>
        <mxCell id="conn3-label" value="consumes API" style="edgeLabel;html=1;align=center;verticalAlign=middle;resizable=0;points=[];" vertex="1" connectable="0" parent="conn3">
          <mxGeometry x="-0.1" y="-1" relative="1" as="geometry">
            <mxPoint as="offset" />
          </mxGeometry>
        </mxCell>

        <!-- Component connections -->
        <mxCell id="comp-conn1" value="" style="endArrow=classic;html=1;rounded=0;" edge="1" parent="1" source="webapp-component" target="business-component">
          <mxGeometry width="50" height="50" relative="1" as="geometry">
            <mxPoint x="400" y="150" as="sourcePoint" />
            <mxPoint x="450" y="100" as="targetPoint" />
          </mxGeometry>
        </mxCell>
        <mxCell id="comp-conn1-label" value="calls business services" style="edgeLabel;html=1;align=center;verticalAlign=middle;resizable=0;points=[];" vertex="1" connectable="0" parent="comp-conn1">
          <mxGeometry x="-0.1" y="-1" relative="1" as="geometry">
            <mxPoint as="offset" />
          </mxGeometry>
        </mxCell>

        <mxCell id="comp-conn2" value="" style="endArrow=classic;html=1;rounded=0;" edge="1" parent="1" source="api-component" target="business-component">
          <mxGeometry width="50" height="50" relative="1" as="geometry">
            <mxPoint x="400" y="300" as="sourcePoint" />
            <mxPoint x="500" y="250" as="targetPoint" />
          </mxGeometry>
        </mxCell>
        <mxCell id="comp-conn2-label" value="calls business services" style="edgeLabel;html=1;align=center;verticalAlign=middle;resizable=0;points=[];" vertex="1" connectable="0" parent="comp-conn2">
          <mxGeometry x="-0.1" y="-1" relative="1" as="geometry">
            <mxPoint as="offset" />
          </mxGeometry>
        </mxCell>

        <mxCell id="comp-conn3" value="" style="endArrow=classic;html=1;rounded=0;" edge="1" parent="1" source="business-component" target="domain-component">
          <mxGeometry width="50" height="50" relative="1" as="geometry">
            <mxPoint x="750" y="230" as="sourcePoint" />
            <mxPoint x="880" y="230" as="targetPoint" />
          </mxGeometry>
        </mxCell>
        <mxCell id="comp-conn3-label" value="uses domain entities" style="edgeLabel;html=1;align=center;verticalAlign=middle;resizable=0;points=[];" vertex="1" connectable="0" parent="comp-conn3">
          <mxGeometry x="-0.1" y="-1" relative="1" as="geometry">
            <mxPoint as="offset" />
          </mxGeometry>
        </mxCell>

        <mxCell id="comp-conn4" value="" style="endArrow=classic;html=1;rounded=0;" edge="1" parent="1" source="business-component" target="dataaccess-component">
          <mxGeometry width="50" height="50" relative="1" as="geometry">
            <mxPoint x="640" y="290" as="sourcePoint" />
            <mxPoint x="640" y="380" as="targetPoint" />
          </mxGeometry>
        </mxCell>
        <mxCell id="comp-conn4-label" value="uses repositories" style="edgeLabel;html=1;align=center;verticalAlign=middle;resizable=0;points=[];" vertex="1" connectable="0" parent="comp-conn4">
          <mxGeometry x="-0.1" y="-1" relative="1" as="geometry">
            <mxPoint as="offset" />
          </mxGeometry>
        </mxCell>

        <mxCell id="comp-conn5" value="" style="endArrow=classic;html=1;rounded=0;" edge="1" parent="1" source="dataaccess-component" target="main-database">
          <mxGeometry width="50" height="50" relative="1" as="geometry">
            <mxPoint x="750" y="420" as="sourcePoint" />
            <mxPoint x="880" y="420" as="targetPoint" />
          </mxGeometry>
        </mxCell>
        <mxCell id="comp-conn5-label" value="reads/writes data" style="edgeLabel;html=1;align=center;verticalAlign=middle;resizable=0;points=[];" vertex="1" connectable="0" parent="comp-conn5">
          <mxGeometry x="-0.1" y="-1" relative="1" as="geometry">
            <mxPoint as="offset" />
          </mxGeometry>
        </mxCell>

        <mxCell id="comp-conn6" value="" style="endArrow=classic;html=1;rounded=0;" edge="1" parent="1" source="webapp-component" target="identity-component">
          <mxGeometry width="50" height="50" relative="1" as="geometry">
            <mxPoint x="290" y="180" as="sourcePoint" />
            <mxPoint x="290" y="480" as="targetPoint" />
          </mxGeometry>
        </mxCell>
        <mxCell id="comp-conn6-label" value="authentication" style="edgeLabel;html=1;align=center;verticalAlign=middle;resizable=0;points=[];" vertex="1" connectable="0" parent="comp-conn6">
          <mxGeometry x="-0.1" y="-1" relative="1" as="geometry">
            <mxPoint as="offset" />
          </mxGeometry>
        </mxCell>

        <mxCell id="comp-conn7" value="" style="endArrow=classic;html=1;rounded=0;" edge="1" parent="1" source="api-component" target="identity-component">
          <mxGeometry width="50" height="50" relative="1" as="geometry">
            <mxPoint x="330" y="380" as="sourcePoint" />
            <mxPoint x="330" y="480" as="targetPoint" />
          </mxGeometry>
        </mxCell>
        <mxCell id="comp-conn7-label" value="authentication" style="edgeLabel;html=1;align=center;verticalAlign=middle;resizable=0;points=[];" vertex="1" connectable="0" parent="comp-conn7">
          <mxGeometry x="-0.1" y="-1" relative="1" as="geometry">
            <mxPoint as="offset" />
          </mxGeometry>
        </mxCell>

        <mxCell id="comp-conn8" value="" style="endArrow=classic;html=1;rounded=0;dashed=1;" edge="1" parent="1" source="unit-tests-component" target="business-component">
          <mxGeometry width="50" height="50" relative="1" as="geometry">
            <mxPoint x="260" y="620" as="sourcePoint" />
            <mxPoint x="600" y="280" as="targetPoint" />
          </mxGeometry>
        </mxCell>
        <mxCell id="comp-conn8-label" value="tests" style="edgeLabel;html=1;align=center;verticalAlign=middle;resizable=0;points=[];" vertex="1" connectable="0" parent="comp-conn8">
          <mxGeometry x="-0.1" y="-1" relative="1" as="geometry">
            <mxPoint as="offset" />
          </mxGeometry>
        </mxCell>

        <mxCell id="comp-conn9" value="" style="endArrow=classic;html=1;rounded=0;dashed=1;" edge="1" parent="1" source="integration-tests-component" target="dataaccess-component">
          <mxGeometry width="50" height="50" relative="1" as="geometry">
            <mxPoint x="410" y="620" as="sourcePoint" />
            <mxPoint x="610" y="480" as="targetPoint" />
          </mxGeometry>
        </mxCell>
        <mxCell id="comp-conn9-label" value="tests" style="edgeLabel;html=1;align=center;verticalAlign=middle;resizable=0;points=[];" vertex="1" connectable="0" parent="comp-conn9">
          <mxGeometry x="-0.1" y="-1" relative="1" as="geometry">
            <mxPoint as="offset" />
          </mxGeometry>
        </mxCell>

        <!-- External service connections -->
        <mxCell id="ext-conn1" value="" style="endArrow=classic;html=1;rounded=0;dashed=1;" edge="1" parent="1" source="identity-component" target="email-service">
          <mxGeometry width="50" height="50" relative="1" as="geometry">
            <mxPoint x="200" y="520" as="sourcePoint" />
            <mxPoint x="170" y="520" as="targetPoint" />
          </mxGeometry>
        </mxCell>
        <mxCell id="ext-conn1-label" value="sends emails" style="edgeLabel;html=1;align=center;verticalAlign=middle;resizable=0;points=[];" vertex="1" connectable="0" parent="ext-conn1">
          <mxGeometry x="-0.1" y="-1" relative="1" as="geometry">
            <mxPoint as="offset" />
          </mxGeometry>
        </mxCell>

        <mxCell id="ext-conn2" value="" style="endArrow=classic;html=1;rounded=0;dashed=1;" edge="1" parent="1" source="business-component" target="logging-service">
          <mxGeometry width="50" height="50" relative="1" as="geometry">
            <mxPoint x="700" y="280" as="sourcePoint" />
            <mxPoint x="900" y="480" as="targetPoint" />
          </mxGeometry>
        </mxCell>
        <mxCell id="ext-conn2-label" value="writes logs" style="edgeLabel;html=1;align=center;verticalAlign=middle;resizable=0;points=[];" vertex="1" connectable="0" parent="ext-conn2">
          <mxGeometry x="-0.1" y="-1" relative="1" as="geometry">
            <mxPoint as="offset" />
          </mxGeometry>
        </mxCell>

        <!-- System Boundary -->
        <mxCell id="system-boundary" value="Avans Meal Rescue System" style="swimlane;fontStyle=1;align=center;verticalAlign=top;childLayout=stackLayout;horizontal=1;startSize=26;horizontalStack=0;resizeParent=1;resizeParentMax=0;resizeLast=0;collapsible=1;marginBottom=0;whiteSpace=wrap;html=1;fillColor=none;strokeColor=#666666;strokeWidth=2;" vertex="1" parent="1">
          <mxGeometry x="180" y="60" width="900" height="640" as="geometry" />
        </mxCell>

        <!-- Legend -->
        <mxCell id="comp-legend" value="Component Types:&#xa;• Actors: External users of the system&#xa;• Components: Logical system modules&#xa;• Databases: Data storage components&#xa;• External Services: Third-party integrations&#xa;&#xa;Connection Types:&#xa;─────────  Uses/Calls&#xa;- - - - - - -  Optional/External&#xa;&#xa;Architecture Pattern: Layered with Clean Architecture principles" style="shape=note;whiteSpace=wrap;html=1;backgroundOutline=1;darkOpacity=0.05;" vertex="1" parent="1">
          <mxGeometry x="50" y="750" width="350" height="150" as="geometry" />
        </mxCell>
      </root>
    </mxGraphModel>
  </diagram>
</mxfile>